HIERARCHY
ROOT Hips
{
	OFFSET 0.000000 0.000000 0.000000
	CHANNELS 6 Xposition Yposition Zposition Xrotation Yrotation Zrotation
	JOINT LeftUpLeg_virtual
	{
		OFFSET 0.000000 0.000000 0.000000
		CHANNELS 3 Xrotation Yrotation Zrotation
		JOINT LeftUpLeg
		{
			OFFSET 15.427100 -6.655098 0.678600
			CHANNELS 3 Xrotation Yrotation Zrotation
			JOINT LeftLeg
			{
				OFFSET 4.081073 -39.591068 13.024000
				CHANNELS 3 Xrotation Yrotation Zrotation
				JOINT LeftFoot
				{
					OFFSET -4.081074 -37.707932 -15.979700
					CHANNELS 3 Xrotation Yrotation Zrotation
					JOINT LeftToeBase
					{
						OFFSET 5.346399 -15.068900 20.645000
						CHANNELS 3 Xrotation Yrotation Zrotation
						JOINT LeftToe_End
						{
							OFFSET 2.754700 0.931300 11.300900
							CHANNELS 3 Xrotation Yrotation Zrotation
							End Site
							{
								OFFSET 0 0 0
							}
						}
					}
				}
			}
		}
	}
	JOINT RightUpLeg_virtual
	{
		OFFSET 0.000000 0.000000 0.000000
		CHANNELS 3 Xrotation Yrotation Zrotation
		JOINT RightUpLeg
		{
			OFFSET -15.569500 -6.655098 0.678600
			CHANNELS 3 Xrotation Yrotation Zrotation
			JOINT RightLeg
			{
				OFFSET -4.081825 -39.591045 13.023800
				CHANNELS 3 Xrotation Yrotation Zrotation
				JOINT RightFoot
				{
					OFFSET 4.081824 -37.707954 -15.979600
					CHANNELS 3 Xrotation Yrotation Zrotation
					JOINT RightToeBase
					{
						OFFSET -5.346400 -15.068900 20.645000
						CHANNELS 3 Xrotation Yrotation Zrotation
						JOINT RightToe_End
						{
							OFFSET -2.754700 0.931300 11.300900
							CHANNELS 3 Xrotation Yrotation Zrotation
							End Site
							{
								OFFSET 0 0 0
							}
						}
					}
				}
			}
		}
	}
	JOINT Spine_virtual
	{
		OFFSET 0.000000 0.000000 0.000000
		CHANNELS 3 Xrotation Yrotation Zrotation
		JOINT Spine
		{
			OFFSET -0.279200 12.230698 -2.892100
			CHANNELS 3 Xrotation Yrotation Zrotation
			JOINT Spine1
			{
				OFFSET -0.232667 10.192268 -1.242267
				CHANNELS 3 Xrotation Yrotation Zrotation
				JOINT Spine1_split
				{
					OFFSET -0.232667 10.192268 -1.242267
					CHANNELS 3 Xrotation Yrotation Zrotation
					JOINT Spine2
					{
						OFFSET -0.232667 10.192268 -1.242267
						CHANNELS 3 Xrotation Yrotation Zrotation
						JOINT Neck_virtual
						{
							OFFSET 0.000000 0.000000 0.000000
							CHANNELS 3 Xrotation Yrotation Zrotation
							JOINT Neck
							{
								OFFSET -0.418800 17.814194 8.416900
								CHANNELS 3 Xrotation Yrotation Zrotation
								JOINT Head
								{
									OFFSET 0.000000 7.031097 3.806800
									CHANNELS 3 Xrotation Yrotation Zrotation
									JOINT HeadTop_End
									{
										OFFSET 0.000000 24.646606 12.978600
										CHANNELS 3 Xrotation Yrotation Zrotation
										End Site
										{
											OFFSET 0 0 0
										}
									}
								}
							}
						}
						JOINT LeftShoulder_virtual
						{
							OFFSET 0.000000 0.000000 0.000000
							CHANNELS 3 Xrotation Yrotation Zrotation
							JOINT LeftShoulder
							{
								OFFSET 8.476499 7.247704 -3.868750
								CHANNELS 3 Xrotation Yrotation Zrotation
								JOINT LeftShoulder_split
								{
									OFFSET 8.476499 7.247704 -3.868750
									CHANNELS 3 Xrotation Yrotation Zrotation
									JOINT LeftArm
									{
										OFFSET 9.308998 -2.777710 0.208600
										CHANNELS 3 Xrotation Yrotation Zrotation
										JOINT LeftForeArm
										{
											OFFSET 29.972298 0.000000 0.000000
											CHANNELS 3 Xrotation Yrotation Zrotation
											JOINT LeftHand
											{
												OFFSET 26.026505 0.000000 0.000000
												CHANNELS 3 Xrotation Yrotation Zrotation
												End Site
												{
													OFFSET 0 0 0
												}
											}
										}
									}
								}
							}
						}
						JOINT RightShoulder_virtual
						{
							OFFSET 0.000000 0.000000 0.000000
							CHANNELS 3 Xrotation Yrotation Zrotation
							JOINT RightShoulder
							{
								OFFSET -7.570500 7.247704 -3.868750
								CHANNELS 3 Xrotation Yrotation Zrotation
								JOINT RightShoulder_split
								{
									OFFSET -7.570500 7.247704 -3.868750
									CHANNELS 3 Xrotation Yrotation Zrotation
									JOINT RightArm
									{
										OFFSET -9.308998 -2.777710 0.208500
										CHANNELS 3 Xrotation Yrotation Zrotation
										JOINT RightForeArm
										{
											OFFSET -29.972300 0.000000 0.000000
											CHANNELS 3 Xrotation Yrotation Zrotation
											JOINT RightHand
											{
												OFFSET -26.026505 0.000000 0.000000
												CHANNELS 3 Xrotation Yrotation Zrotation
												End Site
												{
													OFFSET 0 0 0
												}
											}
										}
									}
								}
							}
						}
					}
				}
			}
		}
	}
}
MOTION
Frames: 8
Frame Time: 0.03333333
4.661319 93.839798 0.219149 0.000000 0.000000 0.000000 -29.190856 -47.186635 -21.267401 0.974140 16.938838 -2.935951 26.252986 3.201726 5.092657 -6.793783 5.815082 -3.679477 -2.606858 -2.106113 0.542385 0.000000 0.000000 0.000000 -27.162785 -45.268732 -19.939066 11.457606 -9.514886 -1.724042 20.733285 15.462638 -0.535624 -19.130274 -25.095893 9.136510 -2.820438 6.416941 -19.289848 0.000000 0.000000 0.000000 -29.439126 -42.454280 -22.366559 8.015282 -1.895499 -1.171498 3.472756 -0.688699 -1.218582 0.126185 -0.039750 0.014546 0.000000 0.000000 0.000000 6.873302 0.423419 -0.575873 4.107706 5.268100 1.875032 -15.527979 -10.291108 11.238230 0.000000 0.000000 0.000000 5.626253 -1.141356 -1.034923 4.182651 -5.439497 -11.062844 6.201329 -7.937280 0.574153 -31.124352 7.089405 -31.935451 7.414671 -48.969424 4.397712 0.000000 0.000000 0.000000 4.002779 -1.362659 -0.049029 -2.257962 8.900171 17.802687 1.733038 -1.372322 -0.096724 -12.013116 2.835589 58.617401 -7.810186 36.959953 2.385399 0.000000 0.000000 0.000000 
5.265331 93.955643 1.100348 0.000000 0.000000 0.000000 -31.315536 -50.031972 -23.637210 2.029438 17.939980 -3.553512 24.949151 3.289253 4.790109 -7.069874 7.046874 -1.753145 -1.351499 -1.790991 0.457975 0.000000 0.000000 0.000000 -28.960146 -47.861905 -22.032256 10.406171 -9.630268 -2.441520 20.735939 15.426237 -0.715013 -17.249356 -24.519020 9.697211 -4.125651 6.796760 -19.119573 0.000000 0.000000 0.000000 -31.414680 -45.112249 -24.640802 8.285610 -1.861350 -1.416891 3.346927 -0.705827 -1.272429 0.120983 -0.062252 0.018171 0.000000 0.000000 0.000000 6.808023 0.414455 -0.548517 4.118286 5.423277 1.737051 -15.716088 -9.571450 11.170687 0.000000 0.000000 0.000000 5.545186 -1.129807 -1.013669 4.235858 -5.368131 -10.926918 6.024588 -7.992027 0.459441 -30.990631 7.235839 -31.808522 7.250677 -48.800786 4.322575 0.000000 0.000000 0.000000 3.946266 -1.385556 -0.044682 -2.273549 9.025266 18.013912 2.047579 -1.353212 -0.073265 -12.520258 3.039877 58.760855 -7.914471 36.652342 2.183823 0.000000 0.000000 0.000000 
5.874627 94.045013 2.011978 0.000000 0.000000 0.000000 -33.760303 -52.631307 -26.256400 3.260937 18.657208 -4.139368 23.808392 3.075945 4.434968 -7.546936 8.022823 -0.487101 -0.684222 -1.497910 0.345594 0.000000 0.000000 0.000000 -31.023351 -50.441664 -24.344230 9.430320 -9.816683 -2.983816 20.854197 14.947907 -0.698931 -15.928761 -23.972274 9.454229 -4.928721 7.030161 -18.391203 0.000000 0.000000 0.000000 -33.533152 -47.633128 -27.112940 8.451933 -1.876301 -1.658010 3.229319 -0.728889 -1.299505 0.138484 -0.083361 0.024339 0.000000 0.000000 0.000000 6.782468 0.396071 -0.502898 4.157371 5.597407 1.597937 -15.989295 -8.829840 11.131451 0.000000 0.000000 0.000000 5.542903 -1.122413 -0.962647 4.331794 -5.208182 -10.730290 5.894383 -8.073787 0.278813 -30.929508 7.336462 -31.770266 7.128147 -48.737375 4.292918 0.000000 0.000000 0.000000 3.966900 -1.412043 -0.040201 -2.270293 9.147565 18.182913 2.411569 -1.185891 0.029965 -12.980904 3.183893 58.860651 -7.992605 36.416970 1.962826 0.000000 0.000000 0.000000 
6.478165 94.100945 2.866545 0.000000 0.000000 0.000000 -36.470314 -54.916743 -29.127642 4.469546 19.218465 -4.566675 22.923788 2.705969 4.022472 -8.079811 8.672967 0.183039 -0.606174 -1.216803 0.137037 0.000000 0.000000 0.000000 -33.354590 -52.955652 -26.928615 8.537690 -9.951306 -3.219365 21.131306 14.040577 -0.504166 -15.198057 -23.472140 8.470696 -4.990433 7.062249 -17.136666 0.000000 0.000000 0.000000 -35.733388 -49.967963 -29.724618 8.500433 -1.943948 -1.864425 3.118080 -0.758142 -1.313097 0.165288 -0.107904 0.036078 0.000000 0.000000 0.000000 6.814154 0.374197 -0.453775 4.205194 5.776535 1.500378 -16.294125 -8.106851 11.187175 0.000000 0.000000 0.000000 5.618420 -1.120462 -0.900547 4.460395 -4.966598 -10.492350 5.847285 -8.162224 0.095727 -30.955066 7.396823 -31.816216 7.075984 -48.743775 4.320033 0.000000 0.000000 0.000000 4.040494 -1.442398 -0.043548 -2.260625 9.265495 18.342789 2.811640 -0.912720 0.116720 -13.364492 3.265986 58.899788 -8.037614 36.241592 1.729815 0.000000 0.000000 0.000000 
7.076643 94.131424 3.647224 0.000000 0.000000 0.000000 -39.293283 -56.929729 -32.190675 5.687300 19.878622 -4.839211 22.283000 2.458341 3.577859 -8.806286 9.019554 0.814865 -0.688808 -1.002317 -0.045781 0.000000 0.000000 0.000000 -35.860289 -55.310865 -29.723638 7.710218 -9.914937 -3.161655 21.658081 12.916643 -0.146830 -14.878811 -22.951094 7.301168 -4.730589 6.982516 -15.533312 0.000000 0.000000 0.000000 -37.906542 -52.069462 -32.358202 8.477148 -2.062221 -2.010824 3.012015 -0.787541 -1.337029 0.178852 -0.140388 0.055267 0.000000 0.000000 0.000000 6.908519 0.350883 -0.418763 4.240226 5.946794 1.467608 -16.594643 -7.430909 11.377071 0.000000 0.000000 0.000000 5.743456 -1.124673 -0.849412 4.611841 -4.653780 -10.239254 5.890578 -8.269035 -0.052040 -31.078706 7.423961 -31.920681 7.073736 -48.782843 4.386690 0.000000 0.000000 0.000000 4.125071 -1.481783 -0.059862 -2.258707 9.360579 18.511484 3.244996 -0.630557 0.160913 -13.670702 3.304340 58.909029 -8.055918 36.127978 1.511964 0.000000 0.000000 0.000000 
7.604779 94.133331 4.299225 0.000000 0.000000 0.000000 -42.231811 -58.799138 -35.460225 6.772551 20.855706 -4.879406 21.905605 2.359589 3.037844 -9.747936 9.045616 1.535244 -0.262619 -0.866375 -0.146000 0.000000 0.000000 0.000000 -38.522550 -57.438906 -32.722453 6.940030 -9.680559 -2.878491 22.635568 11.706978 0.302043 -14.789349 -22.440622 6.406388 -4.531849 6.844183 -13.843412 0.000000 0.000000 0.000000 -39.994818 -53.948393 -34.934048 8.466323 -2.237988 -2.093689 2.902990 -0.811652 -1.380530 0.186423 -0.180743 0.059490 0.000000 0.000000 0.000000 7.041582 0.328157 -0.406679 4.250229 6.100026 1.496655 -16.869275 -6.817191 11.708673 0.000000 0.000000 0.000000 5.890187 -1.132092 -0.825695 4.780069 -4.290518 -10.026210 5.999554 -8.447577 -0.112166 -31.293956 7.428531 -32.054696 7.095327 -48.835603 4.474547 0.000000 0.000000 0.000000 4.189245 -1.532279 -0.094048 -2.269715 9.402646 18.672735 3.685037 -0.347812 0.142285 -13.897920 3.329226 58.950352 -8.052739 36.068269 1.331246 0.000000 0.000000 0.000000 
8.014392 94.066925 4.801462 0.000000 0.000000 0.000000 -45.276638 -60.563369 -38.891951 7.614001 22.265717 -4.615351 21.742393 2.279379 2.324480 -10.847327 8.607371 2.190849 0.501213 -0.846562 0.071503 0.000000 0.000000 0.000000 -41.316716 -59.377088 -35.911632 6.440508 -9.363755 -2.424713 24.088277 10.409731 0.852386 -15.206964 -22.095978 5.759342 -4.035057 6.601739 -12.370911 0.000000 0.000000 0.000000 -42.083753 -55.599625 -37.495136 8.557125 -2.463236 -2.125494 2.792986 -0.819268 -1.441654 0.169835 -0.211513 0.056410 0.000000 0.000000 0.000000 7.187521 0.308689 -0.418553 4.239182 6.224962 1.566041 -17.112028 -6.247611 12.147539 0.000000 0.000000 0.000000 6.030278 -1.140699 -0.833137 4.954121 -3.905782 -9.881206 6.135830 -8.680622 -0.105376 -31.602954 7.396552 -32.183144 7.124627 -48.898390 4.576141 0.000000 0.000000 0.000000 4.216936 -1.587180 -0.142774 -2.293388 9.376015 18.788850 4.071638 -0.117766 0.074652 -14.057170 3.358732 59.079074 -8.037469 36.048314 1.210826 0.000000 0.000000 0.000000 
8.326470 93.948105 5.196371 0.000000 0.000000 0.000000 -48.508775 -62.239894 -42.513034 8.300112 23.954151 -4.212549 21.823540 2.164546 1.523869 -11.939292 7.753396 2.592938 1.141382 -0.961982 0.761481 0.000000 0.000000 0.000000 -44.197942 -61.102825 -39.213817 6.416443 -9.163745 -1.900753 25.766563 8.987687 1.510258 -16.367353 -22.122703 5.182579 -3.006255 6.269164 -11.371733 0.000000 0.000000 0.000000 -44.109027 -57.040303 -39.999920 8.786854 -2.719389 -2.116148 2.695894 -0.801208 -1.505379 0.149359 -0.221338 0.047326 0.000000 0.000000 0.000000 7.308052 0.296066 -0.449179 4.224533 6.325016 1.637994 -17.341536 -5.730015 12.634053 0.000000 0.000000 0.000000 6.148567 -1.143483 -0.864308 5.133250 -3.529553 -9.827961 6.288040 -8.979572 -0.048131 -31.992722 7.320414 -32.274286 7.161772 -48.986916 4.698434 0.000000 0.000000 0.000000 4.218387 -1.633019 -0.197169 -2.327272 9.253742 18.815761 4.406853 0.093029 -0.036728 -14.172587 3.374110 59.323895 -8.016853 36.063928 1.158662 0.000000 0.000000 0.000000 
